<svg width="500" height="500" viewBox="0 0 500 500" fill="none" xmlns="http://www.w3.org/2000/svg">
<g clip-path="url(#clip0_78_2)">
<mask id="mask0_78_2" style="mask-type:luminance" maskUnits="userSpaceOnUse" x="80" y="69" width="340" height="362">
<path d="M80 69H420V431H80V69Z" fill="white"/>
</mask>
<g mask="url(#mask0_78_2)">
<mask id="mask1_78_2" style="mask-type:alpha" maskUnits="userSpaceOnUse" x="80" y="69" width="340" height="362">
<path d="M420 129.333C420 162.655 394.629 189.667 363.334 189.667C332.037 189.667 306.666 162.655 306.666 129.333C306.666 96.0106 332.037 69 363.334 69C394.629 69 420 96.0124 420 129.333ZM420 250C420 283.32 394.629 310.333 363.334 310.333C332.037 310.333 306.666 283.32 306.666 250C306.666 216.678 332.037 189.667 363.334 189.667C394.629 189.667 420 216.678 420 250ZM420 370.667C420 403.988 394.629 431 363.334 431C332.037 431 306.666 403.988 306.666 370.667C306.666 337.345 332.037 310.333 363.334 310.333C394.629 310.333 420 337.345 420 370.667ZM306.666 129.333C306.666 162.655 281.295 189.667 250 189.667C218.703 189.667 193.334 162.655 193.334 129.333C193.334 96.0106 218.703 69 250 69C281.297 69 306.666 96.0124 306.666 129.333ZM306.666 250C306.666 283.32 281.295 310.333 250 310.333C218.703 310.333 193.334 283.32 193.334 250C193.334 216.678 218.705 189.667 250 189.667C281.295 189.667 306.666 216.678 306.666 250ZM306.666 370.667C306.666 403.988 281.295 431 250 431C218.703 431 193.334 403.988 193.334 370.667C193.334 337.345 218.705 310.333 250 310.333C281.295 310.333 306.666 337.345 306.666 370.667ZM193.334 129.333C193.334 162.655 167.963 189.667 136.666 189.667C105.369 189.667 80 162.655 80 129.333C80 96.0106 105.371 69 136.666 69C167.963 69 193.334 96.0124 193.334 129.333ZM193.334 250C193.334 283.32 167.963 310.333 136.666 310.333C105.369 310.333 80 283.32 80 250C80 216.678 105.371 189.667 136.666 189.667C167.963 189.667 193.334 216.68 193.334 250ZM193.334 370.667C193.334 403.988 167.963 431 136.666 431C105.369 431 80 403.988 80 370.667C80 337.345 105.371 310.333 136.666 310.333C167.963 310.333 193.334 337.345 193.334 370.667Z" fill="white"/>
</mask>
<g mask="url(#mask1_78_2)">
<path d="M420 69H80V431H420V69Z" fill="url(#paint0_linear_78_2)"/>
<path d="M420 69H80V431H420V69Z" fill="url(#paint1_linear_78_2)"/>
<g filter="url(#filter0_f_78_2)">
<path d="M302.7 74.4299H59.6001V269.91H302.7V74.4299Z" fill="url(#paint2_linear_78_2)"/>
<path d="M403 266.29H80V476.25H403V266.29Z" fill="url(#paint3_linear_78_2)"/>
<path d="M395.27 271.56C459.97 225.314 488.238 149.474 458.409 102.167C428.58 54.8594 351.949 53.9989 287.249 100.245C222.55 146.491 194.281 222.331 224.11 269.638C253.94 316.945 330.57 317.806 395.27 271.56Z" fill="url(#paint4_linear_78_2)"/>
</g>
</g>
</g>
<mask id="mask2_78_2" style="mask-type:alpha" maskUnits="userSpaceOnUse" x="80" y="69" width="340" height="362">
<path d="M420 129.333C420 162.655 394.629 189.667 363.334 189.667C332.037 189.667 306.666 162.655 306.666 129.333C306.666 96.0106 332.037 69 363.334 69C394.629 69 420 96.0124 420 129.333ZM420 250C420 283.32 394.629 310.333 363.334 310.333C332.037 310.333 306.666 283.32 306.666 250C306.666 216.678 332.037 189.667 363.334 189.667C394.629 189.667 420 216.678 420 250ZM420 370.667C420 403.988 394.629 431 363.334 431C332.037 431 306.666 403.988 306.666 370.667C306.666 337.345 332.037 310.333 363.334 310.333C394.629 310.333 420 337.345 420 370.667ZM306.666 129.333C306.666 162.655 281.295 189.667 250 189.667C218.703 189.667 193.334 162.655 193.334 129.333C193.334 96.0106 218.703 69 250 69C281.297 69 306.666 96.0124 306.666 129.333ZM306.666 250C306.666 283.32 281.295 310.333 250 310.333C218.703 310.333 193.334 283.32 193.334 250C193.334 216.678 218.705 189.667 250 189.667C281.295 189.667 306.666 216.678 306.666 250ZM306.666 370.667C306.666 403.988 281.295 431 250 431C218.703 431 193.334 403.988 193.334 370.667C193.334 337.345 218.705 310.333 250 310.333C281.295 310.333 306.666 337.345 306.666 370.667ZM193.334 129.333C193.334 162.655 167.963 189.667 136.666 189.667C105.369 189.667 80 162.655 80 129.333C80 96.0106 105.371 69 136.666 69C167.963 69 193.334 96.0124 193.334 129.333ZM193.334 250C193.334 283.32 167.963 310.333 136.666 310.333C105.369 310.333 80 283.32 80 250C80 216.678 105.371 189.667 136.666 189.667C167.963 189.667 193.334 216.68 193.334 250ZM193.334 370.667C193.334 403.988 167.963 431 136.666 431C105.369 431 80 403.988 80 370.667C80 337.345 105.371 310.333 136.666 310.333C167.963 310.333 193.334 337.345 193.334 370.667Z" fill="white"/>
</mask>
<g mask="url(#mask2_78_2)">
<g style="mix-blend-mode:overlay">
<path d="M420 69H80V431H420V69Z" fill="url(#paint5_linear_78_2)"/>
</g>
</g>
</g>
<defs>
<filter id="filter0_f_78_2" x="-60.3999" y="-53.8845" width="650.691" height="650.135" filterUnits="userSpaceOnUse" color-interpolation-filters="sRGB">
<feFlood flood-opacity="0" result="BackgroundImageFix"/>
<feBlend mode="normal" in="SourceGraphic" in2="BackgroundImageFix" result="shape"/>
<feGaussianBlur stdDeviation="60" result="effect1_foregroundBlur_78_2"/>
</filter>
<linearGradient id="paint0_linear_78_2" x1="420" y1="121.655" x2="112.784" y2="140.22" gradientUnits="userSpaceOnUse">
<stop stop-color="#B8D6E4"/>
<stop offset="1" stop-color="#F394EB"/>
</linearGradient>
<linearGradient id="paint1_linear_78_2" x1="420" y1="121.655" x2="112.784" y2="140.22" gradientUnits="userSpaceOnUse">
<stop stop-color="#B8D6E4"/>
<stop offset="1" stop-color="#F394EB"/>
</linearGradient>
<linearGradient id="paint2_linear_78_2" x1="181.15" y1="74.4299" x2="181.15" y2="269.91" gradientUnits="userSpaceOnUse">
<stop stop-color="#FFCCCC"/>
<stop offset="1" stop-color="#D2BCD0"/>
</linearGradient>
<linearGradient id="paint3_linear_78_2" x1="403" y1="296.83" x2="112.921" y2="325.543" gradientUnits="userSpaceOnUse">
<stop stop-color="#B8D6E4"/>
<stop offset="1" stop-color="#F394EB"/>
</linearGradient>
<linearGradient id="paint4_linear_78_2" x1="420.11" y1="41.4278" x2="212.965" y2="200.26" gradientUnits="userSpaceOnUse">
<stop stop-color="#B8D6E4"/>
<stop offset="1" stop-color="#F394EB"/>
</linearGradient>
<linearGradient id="paint5_linear_78_2" x1="250" y1="69" x2="250" y2="431" gradientUnits="userSpaceOnUse">
<stop stop-color="#FFCCCC"/>
<stop offset="1" stop-color="#D2BCD0"/>
</linearGradient>
<clipPath id="clip0_78_2">
<rect width="340" height="362" fill="white" transform="translate(80 69)"/>
</clipPath>
</defs>
</svg>
